<svg xmlns="http://www.w3.org/2000/svg" xmlns:xlink="http://www.w3.org/1999/xlink" width="512" zoomAndPan="magnify" viewBox="0 0 384 383.999986" height="512" preserveAspectRatio="xMidYMid meet" version="1.0"><defs><g/></defs><path stroke-linecap="butt" transform="matrix(0.460841, 0, 0, 0.460841, 6.804762, 154.987737)" fill="none" stroke-linejoin="miter" d="M 72.667619 37.610762 L 50.874913 162.001255 L 183.148416 162.001255 C 186.793248 162.001255 190.005786 161.255336 193.091179 159.153201 L 217.536983 145.387602 C 222.716035 142.124206 226.310009 136.758674 227.28479 131.435523 L 237.414033 73.72003 C 241.796308 49.045364 225.75057 37.610762 197.100494 37.610762 Z M 157.346394 67.608579 C 162.483065 67.608579 165.932941 71.62637 165.000542 76.941044 L 156.973435 122.620115 C 155.998654 127.799168 151.048463 131.994963 145.682931 131.994963 L 127.721538 131.994963 L 139.198521 67.608579 Z M 314.065701 162.001255 L 322.838727 111.38047 L 347.894829 162.001255 L 427.403029 162.001255 L 427.589508 160.831519 L 399.27001 115.762745 L 402.719886 115.762745 C 407.102161 115.762745 410.933473 114.965968 414.942788 110.583693 L 425.487373 99.335571 C 427.962468 96.631614 429.081347 94.529479 429.496688 91.6899 L 432.717703 73.72003 C 437.108454 49.045364 421.05424 37.610762 392.404164 37.610762 L 255.748386 37.610762 L 233.955681 162.001255 Z M 330.679355 67.608579 L 340.054202 67.608579 C 345.004393 67.608579 348.640748 71.62637 347.665968 76.941044 L 345.979173 86.324368 C 345.190872 91.266082 340.054202 95.699215 334.68867 95.699215 L 325.686782 95.699215 Z M 507.055326 146.133521 L 526.17798 37.610762 L 473.226198 37.610762 C 471.310542 37.610762 469.403362 38.170202 467.903047 39.102601 L 455.451284 46.197309 C 452.789709 47.731529 450.874053 50.393104 450.501093 53.427639 L 431.369962 162.001255 L 484.330221 162.001255 C 486.245877 162.001255 488.153057 161.441816 489.695753 160.458559 L 502.105135 153.414709 C 504.76671 151.872013 506.495887 149.218914 507.055326 146.133521 Z M 610.653323 124.535771 L 659.171973 124.535771 C 662.816805 124.535771 666.266681 123.789852 669.301215 121.687716 L 693.611398 107.922118 C 698.739592 104.658722 702.384425 99.335571 703.359205 93.970039 L 706.953179 73.72003 C 711.386312 49.045364 695.332098 37.610762 666.63964 37.610762 L 543.554506 37.610762 L 521.770276 162.001255 L 593.437848 162.001255 L 603.982432 102.370106 Z M 610.093884 67.608579 L 626.885541 67.608579 C 632.064593 67.608579 635.472087 71.62637 634.539688 76.941044 L 632.996992 85.154631 C 632.251073 90.333683 627.2585 94.529479 621.943826 94.529479 L 605.287791 94.529479 Z M 719.565994 162.001255 L 736.781469 162.001255 C 746.342796 162.001255 755.488782 154.160628 757.031478 144.785781 L 758.760654 135.826275 C 760.481354 126.069991 753.996943 118.42432 744.435616 118.42432 L 727.220141 118.42432 C 717.650338 118.42432 708.504352 126.069991 706.783652 135.826275 L 705.054476 144.785781 C 703.51178 154.160628 710.047048 162.001255 719.565994 162.001255 Z M 719.565994 162.001255 " stroke="rgb(100%, 100%, 100%)" stroke-width="7.166775" stroke-opacity="1" stroke-miterlimit="4"/><g fill="rgb(0%, 0%, 0%)" fill-opacity="0.4196"><g transform="translate(27.133859, 229.945666)"><g><path d="M 13.121094 -57.335938 L 3.082031 0 L 64.027344 0 C 65.703125 0 67.199219 -0.351562 68.609375 -1.320312 L 79.878906 -7.664062 C 82.257812 -9.160156 83.933594 -11.625 84.371094 -14.089844 L 89.039062 -40.6875 C 91.066406 -52.050781 83.667969 -57.335938 70.457031 -57.335938 Z M 52.136719 -43.507812 C 54.515625 -43.507812 56.101562 -41.65625 55.660156 -39.191406 L 51.960938 -18.144531 C 51.523438 -15.765625 49.230469 -13.828125 46.765625 -13.828125 L 38.488281 -13.828125 L 43.769531 -43.507812 Z M 52.136719 -43.507812 "/></g></g></g><g fill="rgb(0%, 0%, 0%)" fill-opacity="0.4196"><g transform="translate(111.505899, 229.945666)"><g><path d="M 39.984375 0 L 44.035156 -23.339844 L 55.574219 0 L 92.210938 0 L 92.296875 -0.527344 L 79.265625 -21.3125 L 80.847656 -21.3125 C 82.875 -21.3125 84.636719 -21.664062 86.484375 -23.691406 L 91.328125 -28.886719 C 92.476562 -30.121094 93.003906 -31.089844 93.179688 -32.410156 L 94.675781 -40.6875 C 96.703125 -52.050781 89.304688 -57.335938 76.09375 -57.335938 L 13.121094 -57.335938 L 3.082031 0 Z M 47.648438 -43.507812 L 51.960938 -43.507812 C 54.25 -43.507812 55.925781 -41.65625 55.484375 -39.191406 L 54.691406 -34.875 C 54.339844 -32.585938 51.960938 -30.5625 49.496094 -30.5625 L 45.355469 -30.5625 Z M 47.648438 -43.507812 "/></g></g></g><g fill="rgb(0%, 0%, 0%)" fill-opacity="0.4196"><g transform="translate(200.633765, 229.945666)"><g><path d="M 39.808594 -7.308594 L 48.617188 -57.335938 L 24.21875 -57.335938 C 23.339844 -57.335938 22.457031 -57.070312 21.753906 -56.628906 L 16.027344 -53.371094 C 14.796875 -52.667969 13.914062 -51.433594 13.738281 -50.023438 L 4.933594 0 L 29.328125 0 C 30.207031 0 31.089844 -0.265625 31.792969 -0.703125 L 37.519531 -3.964844 C 38.75 -4.667969 39.542969 -5.902344 39.808594 -7.308594 Z M 39.808594 -7.308594 "/></g></g></g><g fill="rgb(0%, 0%, 0%)" fill-opacity="0.4196"><g transform="translate(244.14085, 229.945666)"><g><path d="M 44.035156 -17.261719 L 66.40625 -17.261719 C 68.078125 -17.261719 69.664062 -17.613281 71.074219 -18.582031 L 82.257812 -24.925781 C 84.636719 -26.421875 86.308594 -28.886719 86.75 -31.351562 L 88.421875 -40.6875 C 90.449219 -52.050781 83.050781 -57.335938 69.839844 -57.335938 L 13.121094 -57.335938 L 3.082031 0 L 36.109375 0 L 40.953125 -27.476562 Z M 43.769531 -43.507812 L 51.523438 -43.507812 C 53.898438 -43.507812 55.484375 -41.65625 55.042969 -39.191406 L 54.339844 -35.40625 C 53.988281 -33.027344 51.699219 -31.089844 49.230469 -31.089844 L 41.570312 -31.089844 Z M 43.769531 -43.507812 "/></g></g></g><g fill="rgb(0%, 0%, 0%)" fill-opacity="0.4196"><g transform="translate(327.896409, 229.945666)"><g><path d="M 10.480469 0 L 18.40625 0 C 22.808594 0 27.039062 -3.609375 27.742188 -7.925781 L 28.535156 -12.066406 C 29.328125 -16.558594 26.332031 -20.082031 21.929688 -20.082031 L 14.003906 -20.082031 C 9.601562 -20.082031 5.371094 -16.558594 4.578125 -12.066406 L 3.785156 -7.925781 C 3.082031 -3.609375 6.078125 0 10.480469 0 Z M 10.480469 0 "/></g></g></g><g fill="rgb(100%, 100%, 100%)" fill-opacity="1"><g transform="translate(20.676792, 223.021307)"><g><path d="M 13.121094 -57.335938 L 3.082031 0 L 64.027344 0 C 65.703125 0 67.199219 -0.351562 68.609375 -1.320312 L 79.878906 -7.664062 C 82.257812 -9.160156 83.933594 -11.625 84.371094 -14.089844 L 89.039062 -40.6875 C 91.066406 -52.050781 83.667969 -57.335938 70.457031 -57.335938 Z M 52.136719 -43.507812 C 54.515625 -43.507812 56.101562 -41.65625 55.660156 -39.191406 L 51.960938 -18.144531 C 51.523438 -15.765625 49.230469 -13.828125 46.765625 -13.828125 L 38.488281 -13.828125 L 43.769531 -43.507812 Z M 52.136719 -43.507812 "/></g></g></g><g fill="rgb(100%, 100%, 100%)" fill-opacity="1"><g transform="translate(105.048831, 223.021307)"><g><path d="M 39.984375 0 L 44.035156 -23.339844 L 55.574219 0 L 92.210938 0 L 92.296875 -0.527344 L 79.265625 -21.3125 L 80.847656 -21.3125 C 82.875 -21.3125 84.636719 -21.664062 86.484375 -23.691406 L 91.328125 -28.886719 C 92.476562 -30.121094 93.003906 -31.089844 93.179688 -32.410156 L 94.675781 -40.6875 C 96.703125 -52.050781 89.304688 -57.335938 76.09375 -57.335938 L 13.121094 -57.335938 L 3.082031 0 Z M 47.648438 -43.507812 L 51.960938 -43.507812 C 54.25 -43.507812 55.925781 -41.65625 55.484375 -39.191406 L 54.691406 -34.875 C 54.339844 -32.585938 51.960938 -30.5625 49.496094 -30.5625 L 45.355469 -30.5625 Z M 47.648438 -43.507812 "/></g></g></g><g fill="rgb(100%, 100%, 100%)" fill-opacity="1"><g transform="translate(194.176698, 223.021307)"><g><path d="M 39.808594 -7.308594 L 48.617188 -57.335938 L 24.21875 -57.335938 C 23.339844 -57.335938 22.457031 -57.070312 21.753906 -56.628906 L 16.027344 -53.371094 C 14.796875 -52.667969 13.914062 -51.433594 13.738281 -50.023438 L 4.933594 0 L 29.328125 0 C 30.207031 0 31.089844 -0.265625 31.792969 -0.703125 L 37.519531 -3.964844 C 38.75 -4.667969 39.542969 -5.902344 39.808594 -7.308594 Z M 39.808594 -7.308594 "/></g></g></g><g fill="rgb(100%, 100%, 100%)" fill-opacity="1"><g transform="translate(237.683783, 223.021307)"><g><path d="M 44.035156 -17.261719 L 66.40625 -17.261719 C 68.078125 -17.261719 69.664062 -17.613281 71.074219 -18.582031 L 82.257812 -24.925781 C 84.636719 -26.421875 86.308594 -28.886719 86.75 -31.351562 L 88.421875 -40.6875 C 90.449219 -52.050781 83.050781 -57.335938 69.839844 -57.335938 L 13.121094 -57.335938 L 3.082031 0 L 36.109375 0 L 40.953125 -27.476562 Z M 43.769531 -43.507812 L 51.523438 -43.507812 C 53.898438 -43.507812 55.484375 -41.65625 55.042969 -39.191406 L 54.339844 -35.40625 C 53.988281 -33.027344 51.699219 -31.089844 49.230469 -31.089844 L 41.570312 -31.089844 Z M 43.769531 -43.507812 "/></g></g></g><g fill="rgb(100%, 100%, 100%)" fill-opacity="1"><g transform="translate(321.439342, 223.021307)"><g><path d="M 10.480469 0 L 18.40625 0 C 22.808594 0 27.039062 -3.609375 27.742188 -7.925781 L 28.535156 -12.066406 C 29.328125 -16.558594 26.332031 -20.082031 21.929688 -20.082031 L 14.003906 -20.082031 C 9.601562 -20.082031 5.371094 -16.558594 4.578125 -12.066406 L 3.785156 -7.925781 C 3.082031 -3.609375 6.078125 0 10.480469 0 Z M 10.480469 0 "/></g></g></g></svg>