<svg width="698" height="291" viewBox="0 0 698 291" fill="none" xmlns="http://www.w3.org/2000/svg">
<g filter="url(#filter0_f_564_1687)">
<ellipse cx="349" cy="145.5" rx="230" ry="26.5" fill="#3F455D"/>
<path d="M578.5 145.5C578.5 146.258 578.169 147.049 577.437 147.879C576.703 148.712 575.587 149.557 574.082 150.405C571.071 152.1 566.599 153.751 560.794 155.333C549.192 158.493 532.379 161.345 511.577 163.742C469.98 168.534 412.5 171.5 349 171.5C285.5 171.5 228.02 168.534 186.423 163.742C165.621 161.345 148.808 158.493 137.206 155.333C131.401 153.751 126.929 152.1 123.918 150.405C122.413 149.557 121.297 148.712 120.563 147.879C119.831 147.049 119.5 146.258 119.5 145.5C119.5 144.742 119.831 143.951 120.563 143.121C121.297 142.288 122.413 141.443 123.918 140.595C126.929 138.9 131.401 137.249 137.206 135.667C148.808 132.507 165.621 129.655 186.423 127.258C228.02 122.466 285.5 119.5 349 119.5C412.5 119.5 469.98 122.466 511.577 127.258C532.379 129.655 549.192 132.507 560.794 135.667C566.599 137.249 571.071 138.9 574.082 140.595C575.587 141.443 576.703 142.288 577.437 143.121C578.169 143.951 578.5 144.742 578.5 145.5Z" stroke="black"/>
</g>
<defs>
<filter id="filter0_f_564_1687" x="0" y="0" width="698" height="291" filterUnits="userSpaceOnUse" color-interpolation-filters="sRGB">
<feFlood flood-opacity="0" result="BackgroundImageFix"/>
<feBlend mode="normal" in="SourceGraphic" in2="BackgroundImageFix" result="shape"/>
<feGaussianBlur stdDeviation="59.5" result="effect1_foregroundBlur_564_1687"/>
</filter>
</defs>
</svg>
